# xmcd CD database file
#
# Track frame offsets:
#	150
#	19030
#	34593
#	49146
#	66900
#	82364
#	99495
#	118782
#	135996
#	155187
#	171734
#	187804
#	202483
#
# Disc length: 2985 seconds
#
# Revision: 0
# Processed by: cddbd v1.5.2PL0 Copyright (c) Steve Scherf et al.
# Submitted via: CDex 1.51
#
DISCID=c10ba70d
DTITLE=Smokin' Time Five - Smokin' Time Five
DYEAR=2014
DGENRE=Jazz
TTITLE0=The Pearls
TTITLE1=I'll See You In My Dreams
TTITLE2=Egyptian Fantasy
TTITLE3=Mr. Jelly Lord
TTITLE4=Lina's Blues
TTITLE5=Old Man Blues
TTITLE6=Livin' in a Great Big Way
TTITLE7=West End Blues
TTITLE8=Lady Be Good
TTITLE9=Louisiana Fairytale
TTITLE10=Moonlight Fiesta
TTITLE11=Oh Sister Ain't That Hot
TTITLE12=Froggy Bottom Blues
EXTD=YEAR: 2014
EXTT0=
EXTT1=
EXTT2=
EXTT3=
EXTT4=
EXTT5=
EXTT6=
EXTT7=
EXTT8=
EXTT9=
EXTT10=
EXTT11=
EXTT12=
PLAYORDER=
